<?xml version="1.0" encoding="UTF-8"?>
<svg xmlns="http://www.w3.org/2000/svg" xmlns:xlink="http://www.w3.org/1999/xlink"
     width="2100" height="2100" viewBox="0 0 2100 2100">
<defs>
</defs>
<path d="M150,50 L150,2050" stroke="black" stroke-width="1" />
<path d="M250,50 L250,2050" stroke="black" stroke-width="1" />
<path d="M350,50 L350,2050" stroke="black" stroke-width="1" />
<path d="M450,50 L450,2050" stroke="black" stroke-width="1" />
<path d="M550,50 L550,2050" stroke="black" stroke-width="1" />
<path d="M650,50 L650,2050" stroke="black" stroke-width="1" />
<path d="M750,50 L750,2050" stroke="black" stroke-width="1" />
<path d="M850,50 L850,2050" stroke="black" stroke-width="1" />
<path d="M950,50 L950,2050" stroke="black" stroke-width="1" />
<path d="M1050,50 L1050,2050" stroke="black" stroke-width="1" />
<path d="M1150,50 L1150,2050" stroke="black" stroke-width="1" />
<path d="M1250,50 L1250,2050" stroke="black" stroke-width="1" />
<path d="M1350,50 L1350,2050" stroke="black" stroke-width="1" />
<path d="M1450,50 L1450,2050" stroke="black" stroke-width="1" />
<path d="M1550,50 L1550,2050" stroke="black" stroke-width="1" />
<path d="M1650,50 L1650,2050" stroke="black" stroke-width="1" />
<path d="M1750,50 L1750,2050" stroke="black" stroke-width="1" />
<path d="M1850,50 L1850,2050" stroke="black" stroke-width="1" />
<path d="M1950,50 L1950,2050" stroke="black" stroke-width="1" />
<path d="M50,150 L2050,150" stroke="black" stroke-width="1" />
<path d="M50,250 L2050,250" stroke="black" stroke-width="1" />
<path d="M50,350 L2050,350" stroke="black" stroke-width="1" />
<path d="M50,450 L2050,450" stroke="black" stroke-width="1" />
<path d="M50,550 L2050,550" stroke="black" stroke-width="1" />
<path d="M50,650 L2050,650" stroke="black" stroke-width="1" />
<path d="M50,750 L2050,750" stroke="black" stroke-width="1" />
<path d="M50,850 L2050,850" stroke="black" stroke-width="1" />
<path d="M50,950 L2050,950" stroke="black" stroke-width="1" />
<path d="M50,1050 L2050,1050" stroke="black" stroke-width="1" />
<path d="M50,1150 L2050,1150" stroke="black" stroke-width="1" />
<path d="M50,1250 L2050,1250" stroke="black" stroke-width="1" />
<path d="M50,1350 L2050,1350" stroke="black" stroke-width="1" />
<path d="M50,1450 L2050,1450" stroke="black" stroke-width="1" />
<path d="M50,1550 L2050,1550" stroke="black" stroke-width="1" />
<path d="M50,1650 L2050,1650" stroke="black" stroke-width="1" />
<path d="M50,1750 L2050,1750" stroke="black" stroke-width="1" />
<path d="M50,1850 L2050,1850" stroke="black" stroke-width="1" />
<path d="M50,1950 L2050,1950" stroke="black" stroke-width="1" />
<path d="M50,100 A50,50,0,0,0,100,50 M100,150 A50,50,0,0,1,150,100 M50,200 A50,50,0,0,0,100,150 M100,250 A50,50,0,0,1,150,200 M50,300 A50,50,0,0,1,100,350 M100,250 A50,50,0,0,0,150,300 M50,400 A50,50,0,0,0,100,350 M100,450 A50,50,0,0,1,150,400 M50,500 A50,50,0,0,0,100,450 M100,550 A50,50,0,0,1,150,500 M50,600 A50,50,0,0,0,100,550 M100,650 A50,50,0,0,1,150,600 M50,700 A50,50,0,0,0,100,650 M100,750 A50,50,0,0,1,150,700 M50,800 A50,50,0,0,1,100,850 M100,750 A50,50,0,0,0,150,800 M50,900 A50,50,0,0,0,100,850 M100,950 A50,50,0,0,1,150,900 M50,1000 A50,50,0,0,1,100,1050 M100,950 A50,50,0,0,0,150,1000 M50,1100 A50,50,0,0,1,100,1150 M100,1050 A50,50,0,0,0,150,1100 M50,1200 A50,50,0,0,0,100,1150 M100,1250 A50,50,0,0,1,150,1200 M50,1300 A50,50,0,0,1,100,1350 M100,1250 A50,50,0,0,0,150,1300 M50,1400 A50,50,0,0,1,100,1450 M100,1350 A50,50,0,0,0,150,1400 M50,1500 A50,50,0,0,1,100,1550 M100,1450 A50,50,0,0,0,150,1500 M50,1600 A50,50,0,0,0,100,1550 M100,1650 A50,50,0,0,1,150,1600 M50,1700 A50,50,0,0,0,100,1650 M100,1750 A50,50,0,0,1,150,1700 M50,1800 A50,50,0,0,0,100,1750 M100,1850 A50,50,0,0,1,150,1800 M50,1900 A50,50,0,0,1,100,1950 M100,1850 A50,50,0,0,0,150,1900 M50,2000 A50,50,0,0,1,100,2050 M100,1950 A50,50,0,0,0,150,2000 M150,100 A50,50,0,0,1,200,150 M200,50 A50,50,0,0,0,250,100 M150,200 A50,50,0,0,0,200,150 M200,250 A50,50,0,0,1,250,200 M150,300 A50,50,0,0,0,200,250 M200,350 A50,50,0,0,1,250,300 M150,400 A50,50,0,0,1,200,450 M200,350 A50,50,0,0,0,250,400 M150,500 A50,50,0,0,1,200,550 M200,450 A50,50,0,0,0,250,500 M150,600 A50,50,0,0,1,200,650 M200,550 A50,50,0,0,0,250,600 M150,700 A50,50,0,0,1,200,750 M200,650 A50,50,0,0,0,250,700 M150,800 A50,50,0,0,1,200,850 M200,750 A50,50,0,0,0,250,800 M150,900 A50,50,0,0,0,200,850 M200,950 A50,50,0,0,1,250,900 M150,1000 A50,50,0,0,0,200,950 M200,1050 A50,50,0,0,1,250,1000 M150,1100 A50,50,0,0,1,200,1150 M200,1050 A50,50,0,0,0,250,1100 M150,1200 A50,50,0,0,0,200,1150 M200,1250 A50,50,0,0,1,250,1200 M150,1300 A50,50,0,0,1,200,1350 M200,1250 A50,50,0,0,0,250,1300 M150,1400 A50,50,0,0,0,200,1350 M200,1450 A50,50,0,0,1,250,1400 M150,1500 A50,50,0,0,0,200,1450 M200,1550 A50,50,0,0,1,250,1500 M150,1600 A50,50,0,0,1,200,1650 M200,1550 A50,50,0,0,0,250,1600 M150,1700 A50,50,0,0,0,200,1650 M200,1750 A50,50,0,0,1,250,1700 M150,1800 A50,50,0,0,1,200,1850 M200,1750 A50,50,0,0,0,250,1800 M150,1900 A50,50,0,0,0,200,1850 M200,1950 A50,50,0,0,1,250,1900 M150,2000 A50,50,0,0,0,200,1950 M200,2050 A50,50,0,0,1,250,2000 M250,100 A50,50,0,0,1,300,150 M300,50 A50,50,0,0,0,350,100 M250,200 A50,50,0,0,0,300,150 M300,250 A50,50,0,0,1,350,200 M250,300 A50,50,0,0,1,300,350 M300,250 A50,50,0,0,0,350,300 M250,400 A50,50,0,0,0,300,350 M300,450 A50,50,0,0,1,350,400 M250,500 A50,50,0,0,0,300,450 M300,550 A50,50,0,0,1,350,500 M250,600 A50,50,0,0,1,300,650 M300,550 A50,50,0,0,0,350,600 M250,700 A50,50,0,0,1,300,750 M300,650 A50,50,0,0,0,350,700 M250,800 A50,50,0,0,1,300,850 M300,750 A50,50,0,0,0,350,800 M250,900 A50,50,0,0,1,300,950 M300,850 A50,50,0,0,0,350,900 M250,1000 A50,50,0,0,0,300,950 M300,1050 A50,50,0,0,1,350,1000 M250,1100 A50,50,0,0,0,300,1050 M300,1150 A50,50,0,0,1,350,1100 M250,1200 A50,50,0,0,1,300,1250 M300,1150 A50,50,0,0,0,350,1200 M250,1300 A50,50,0,0,1,300,1350 M300,1250 A50,50,0,0,0,350,1300 M250,1400 A50,50,0,0,1,300,1450 M300,1350 A50,50,0,0,0,350,1400 M250,1500 A50,50,0,0,0,300,1450 M300,1550 A50,50,0,0,1,350,1500 M250,1600 A50,50,0,0,1,300,1650 M300,1550 A50,50,0,0,0,350,1600 M250,1700 A50,50,0,0,1,300,1750 M300,1650 A50,50,0,0,0,350,1700 M250,1800 A50,50,0,0,1,300,1850 M300,1750 A50,50,0,0,0,350,1800 M250,1900 A50,50,0,0,0,300,1850 M300,1950 A50,50,0,0,1,350,1900 M250,2000 A50,50,0,0,1,300,2050 M300,1950 A50,50,0,0,0,350,2000 M350,100 A50,50,0,0,0,400,50 M400,150 A50,50,0,0,1,450,100 M350,200 A50,50,0,0,1,400,250 M400,150 A50,50,0,0,0,450,200 M350,300 A50,50,0,0,1,400,350 M400,250 A50,50,0,0,0,450,300 M350,400 A50,50,0,0,0,400,350 M400,450 A50,50,0,0,1,450,400 M350,500 A50,50,0,0,0,400,450 M400,550 A50,50,0,0,1,450,500 M350,600 A50,50,0,0,1,400,650 M400,550 A50,50,0,0,0,450,600 M350,700 A50,50,0,0,1,400,750 M400,650 A50,50,0,0,0,450,700 M350,800 A50,50,0,0,0,400,750 M400,850 A50,50,0,0,1,450,800 M350,900 A50,50,0,0,1,400,950 M400,850 A50,50,0,0,0,450,900 M350,1000 A50,50,0,0,1,400,1050 M400,950 A50,50,0,0,0,450,1000 M350,1100 A50,50,0,0,0,400,1050 M400,1150 A50,50,0,0,1,450,1100 M350,1200 A50,50,0,0,1,400,1250 M400,1150 A50,50,0,0,0,450,1200 M350,1300 A50,50,0,0,0,400,1250 M400,1350 A50,50,0,0,1,450,1300 M350,1400 A50,50,0,0,0,400,1350 M400,1450 A50,50,0,0,1,450,1400 M350,1500 A50,50,0,0,1,400,1550 M400,1450 A50,50,0,0,0,450,1500 M350,1600 A50,50,0,0,0,400,1550 M400,1650 A50,50,0,0,1,450,1600 M350,1700 A50,50,0,0,1,400,1750 M400,1650 A50,50,0,0,0,450,1700 M350,1800 A50,50,0,0,0,400,1750 M400,1850 A50,50,0,0,1,450,1800 M350,1900 A50,50,0,0,1,400,1950 M400,1850 A50,50,0,0,0,450,1900 M350,2000 A50,50,0,0,1,400,2050 M400,1950 A50,50,0,0,0,450,2000 M450,100 A50,50,0,0,0,500,50 M500,150 A50,50,0,0,1,550,100 M450,200 A50,50,0,0,1,500,250 M500,150 A50,50,0,0,0,550,200 M450,300 A50,50,0,0,1,500,350 M500,250 A50,50,0,0,0,550,300 M450,400 A50,50,0,0,1,500,450 M500,350 A50,50,0,0,0,550,400 M450,500 A50,50,0,0,1,500,550 M500,450 A50,50,0,0,0,550,500 M450,600 A50,50,0,0,0,500,550 M500,650 A50,50,0,0,1,550,600 M450,700 A50,50,0,0,1,500,750 M500,650 A50,50,0,0,0,550,700 M450,800 A50,50,0,0,0,500,750 M500,850 A50,50,0,0,1,550,800 M450,900 A50,50,0,0,1,500,950 M500,850 A50,50,0,0,0,550,900 M450,1000 A50,50,0,0,0,500,950 M500,1050 A50,50,0,0,1,550,1000 M450,1100 A50,50,0,0,0,500,1050 M500,1150 A50,50,0,0,1,550,1100 M450,1200 A50,50,0,0,1,500,1250 M500,1150 A50,50,0,0,0,550,1200 M450,1300 A50,50,0,0,0,500,1250 M500,1350 A50,50,0,0,1,550,1300 M450,1400 A50,50,0,0,0,500,1350 M500,1450 A50,50,0,0,1,550,1400 M450,1500 A50,50,0,0,0,500,1450 M500,1550 A50,50,0,0,1,550,1500 M450,1600 A50,50,0,0,0,500,1550 M500,1650 A50,50,0,0,1,550,1600 M450,1700 A50,50,0,0,1,500,1750 M500,1650 A50,50,0,0,0,550,1700 M450,1800 A50,50,0,0,0,500,1750 M500,1850 A50,50,0,0,1,550,1800 M450,1900 A50,50,0,0,0,500,1850 M500,1950 A50,50,0,0,1,550,1900 M450,2000 A50,50,0,0,1,500,2050 M500,1950 A50,50,0,0,0,550,2000 M550,100 A50,50,0,0,0,600,50 M600,150 A50,50,0,0,1,650,100 M550,200 A50,50,0,0,0,600,150 M600,250 A50,50,0,0,1,650,200 M550,300 A50,50,0,0,0,600,250 M600,350 A50,50,0,0,1,650,300 M550,400 A50,50,0,0,0,600,350 M600,450 A50,50,0,0,1,650,400 M550,500 A50,50,0,0,1,600,550 M600,450 A50,50,0,0,0,650,500 M550,600 A50,50,0,0,0,600,550 M600,650 A50,50,0,0,1,650,600 M550,700 A50,50,0,0,1,600,750 M600,650 A50,50,0,0,0,650,700 M550,800 A50,50,0,0,0,600,750 M600,850 A50,50,0,0,1,650,800 M550,900 A50,50,0,0,0,600,850 M600,950 A50,50,0,0,1,650,900 M550,1000 A50,50,0,0,1,600,1050 M600,950 A50,50,0,0,0,650,1000 M550,1100 A50,50,0,0,1,600,1150 M600,1050 A50,50,0,0,0,650,1100 M550,1200 A50,50,0,0,0,600,1150 M600,1250 A50,50,0,0,1,650,1200 M550,1300 A50,50,0,0,0,600,1250 M600,1350 A50,50,0,0,1,650,1300 M550,1400 A50,50,0,0,0,600,1350 M600,1450 A50,50,0,0,1,650,1400 M550,1500 A50,50,0,0,0,600,1450 M600,1550 A50,50,0,0,1,650,1500 M550,1600 A50,50,0,0,0,600,1550 M600,1650 A50,50,0,0,1,650,1600 M550,1700 A50,50,0,0,0,600,1650 M600,1750 A50,50,0,0,1,650,1700 M550,1800 A50,50,0,0,0,600,1750 M600,1850 A50,50,0,0,1,650,1800 M550,1900 A50,50,0,0,0,600,1850 M600,1950 A50,50,0,0,1,650,1900 M550,2000 A50,50,0,0,0,600,1950 M600,2050 A50,50,0,0,1,650,2000 M650,100 A50,50,0,0,0,700,50 M700,150 A50,50,0,0,1,750,100 M650,200 A50,50,0,0,0,700,150 M700,250 A50,50,0,0,1,750,200 M650,300 A50,50,0,0,0,700,250 M700,350 A50,50,0,0,1,750,300 M650,400 A50,50,0,0,0,700,350 M700,450 A50,50,0,0,1,750,400 M650,500 A50,50,0,0,0,700,450 M700,550 A50,50,0,0,1,750,500 M650,600 A50,50,0,0,0,700,550 M700,650 A50,50,0,0,1,750,600 M650,700 A50,50,0,0,1,700,750 M700,650 A50,50,0,0,0,750,700 M650,800 A50,50,0,0,1,700,850 M700,750 A50,50,0,0,0,750,800 M650,900 A50,50,0,0,1,700,950 M700,850 A50,50,0,0,0,750,900 M650,1000 A50,50,0,0,0,700,950 M700,1050 A50,50,0,0,1,750,1000 M650,1100 A50,50,0,0,1,700,1150 M700,1050 A50,50,0,0,0,750,1100 M650,1200 A50,50,0,0,0,700,1150 M700,1250 A50,50,0,0,1,750,1200 M650,1300 A50,50,0,0,1,700,1350 M700,1250 A50,50,0,0,0,750,1300 M650,1400 A50,50,0,0,0,700,1350 M700,1450 A50,50,0,0,1,750,1400 M650,1500 A50,50,0,0,0,700,1450 M700,1550 A50,50,0,0,1,750,1500 M650,1600 A50,50,0,0,0,700,1550 M700,1650 A50,50,0,0,1,750,1600 M650,1700 A50,50,0,0,1,700,1750 M700,1650 A50,50,0,0,0,750,1700 M650,1800 A50,50,0,0,1,700,1850 M700,1750 A50,50,0,0,0,750,1800 M650,1900 A50,50,0,0,1,700,1950 M700,1850 A50,50,0,0,0,750,1900 M650,2000 A50,50,0,0,0,700,1950 M700,2050 A50,50,0,0,1,750,2000 M750,100 A50,50,0,0,1,800,150 M800,50 A50,50,0,0,0,850,100 M750,200 A50,50,0,0,1,800,250 M800,150 A50,50,0,0,0,850,200 M750,300 A50,50,0,0,1,800,350 M800,250 A50,50,0,0,0,850,300 M750,400 A50,50,0,0,0,800,350 M800,450 A50,50,0,0,1,850,400 M750,500 A50,50,0,0,1,800,550 M800,450 A50,50,0,0,0,850,500 M750,600 A50,50,0,0,0,800,550 M800,650 A50,50,0,0,1,850,600 M750,700 A50,50,0,0,0,800,650 M800,750 A50,50,0,0,1,850,700 M750,800 A50,50,0,0,0,800,750 M800,850 A50,50,0,0,1,850,800 M750,900 A50,50,0,0,0,800,850 M800,950 A50,50,0,0,1,850,900 M750,1000 A50,50,0,0,0,800,950 M800,1050 A50,50,0,0,1,850,1000 M750,1100 A50,50,0,0,1,800,1150 M800,1050 A50,50,0,0,0,850,1100 M750,1200 A50,50,0,0,1,800,1250 M800,1150 A50,50,0,0,0,850,1200 M750,1300 A50,50,0,0,0,800,1250 M800,1350 A50,50,0,0,1,850,1300 M750,1400 A50,50,0,0,1,800,1450 M800,1350 A50,50,0,0,0,850,1400 M750,1500 A50,50,0,0,0,800,1450 M800,1550 A50,50,0,0,1,850,1500 M750,1600 A50,50,0,0,0,800,1550 M800,1650 A50,50,0,0,1,850,1600 M750,1700 A50,50,0,0,0,800,1650 M800,1750 A50,50,0,0,1,850,1700 M750,1800 A50,50,0,0,0,800,1750 M800,1850 A50,50,0,0,1,850,1800 M750,1900 A50,50,0,0,1,800,1950 M800,1850 A50,50,0,0,0,850,1900 M750,2000 A50,50,0,0,1,800,2050 M800,1950 A50,50,0,0,0,850,2000 M850,100 A50,50,0,0,1,900,150 M900,50 A50,50,0,0,0,950,100 M850,200 A50,50,0,0,1,900,250 M900,150 A50,50,0,0,0,950,200 M850,300 A50,50,0,0,0,900,250 M900,350 A50,50,0,0,1,950,300 M850,400 A50,50,0,0,0,900,350 M900,450 A50,50,0,0,1,950,400 M850,500 A50,50,0,0,1,900,550 M900,450 A50,50,0,0,0,950,500 M850,600 A50,50,0,0,0,900,550 M900,650 A50,50,0,0,1,950,600 M850,700 A50,50,0,0,1,900,750 M900,650 A50,50,0,0,0,950,700 M850,800 A50,50,0,0,1,900,850 M900,750 A50,50,0,0,0,950,800 M850,900 A50,50,0,0,1,900,950 M900,850 A50,50,0,0,0,950,900 M850,1000 A50,50,0,0,1,900,1050 M900,950 A50,50,0,0,0,950,1000 M850,1100 A50,50,0,0,1,900,1150 M900,1050 A50,50,0,0,0,950,1100 M850,1200 A50,50,0,0,1,900,1250 M900,1150 A50,50,0,0,0,950,1200 M850,1300 A50,50,0,0,0,900,1250 M900,1350 A50,50,0,0,1,950,1300 M850,1400 A50,50,0,0,0,900,1350 M900,1450 A50,50,0,0,1,950,1400 M850,1500 A50,50,0,0,0,900,1450 M900,1550 A50,50,0,0,1,950,1500 M850,1600 A50,50,0,0,0,900,1550 M900,1650 A50,50,0,0,1,950,1600 M850,1700 A50,50,0,0,0,900,1650 M900,1750 A50,50,0,0,1,950,1700 M850,1800 A50,50,0,0,0,900,1750 M900,1850 A50,50,0,0,1,950,1800 M850,1900 A50,50,0,0,0,900,1850 M900,1950 A50,50,0,0,1,950,1900 M850,2000 A50,50,0,0,0,900,1950 M900,2050 A50,50,0,0,1,950,2000 M950,100 A50,50,0,0,1,1000,150 M1000,50 A50,50,0,0,0,1050,100 M950,200 A50,50,0,0,1,1000,250 M1000,150 A50,50,0,0,0,1050,200 M950,300 A50,50,0,0,1,1000,350 M1000,250 A50,50,0,0,0,1050,300 M950,400 A50,50,0,0,1,1000,450 M1000,350 A50,50,0,0,0,1050,400 M950,500 A50,50,0,0,1,1000,550 M1000,450 A50,50,0,0,0,1050,500 M950,600 A50,50,0,0,0,1000,550 M1000,650 A50,50,0,0,1,1050,600 M950,700 A50,50,0,0,0,1000,650 M1000,750 A50,50,0,0,1,1050,700 M950,800 A50,50,0,0,0,1000,750 M1000,850 A50,50,0,0,1,1050,800 M950,900 A50,50,0,0,0,1000,850 M1000,950 A50,50,0,0,1,1050,900 M950,1000 A50,50,0,0,1,1000,1050 M1000,950 A50,50,0,0,0,1050,1000 M950,1100 A50,50,0,0,0,1000,1050 M1000,1150 A50,50,0,0,1,1050,1100 M950,1200 A50,50,0,0,0,1000,1150 M1000,1250 A50,50,0,0,1,1050,1200 M950,1300 A50,50,0,0,0,1000,1250 M1000,1350 A50,50,0,0,1,1050,1300 M950,1400 A50,50,0,0,1,1000,1450 M1000,1350 A50,50,0,0,0,1050,1400 M950,1500 A50,50,0,0,0,1000,1450 M1000,1550 A50,50,0,0,1,1050,1500 M950,1600 A50,50,0,0,0,1000,1550 M1000,1650 A50,50,0,0,1,1050,1600 M950,1700 A50,50,0,0,1,1000,1750 M1000,1650 A50,50,0,0,0,1050,1700 M950,1800 A50,50,0,0,0,1000,1750 M1000,1850 A50,50,0,0,1,1050,1800 M950,1900 A50,50,0,0,1,1000,1950 M1000,1850 A50,50,0,0,0,1050,1900 M950,2000 A50,50,0,0,0,1000,1950 M1000,2050 A50,50,0,0,1,1050,2000 M1050,100 A50,50,0,0,0,1100,50 M1100,150 A50,50,0,0,1,1150,100 M1050,200 A50,50,0,0,0,1100,150 M1100,250 A50,50,0,0,1,1150,200 M1050,300 A50,50,0,0,0,1100,250 M1100,350 A50,50,0,0,1,1150,300 M1050,400 A50,50,0,0,1,1100,450 M1100,350 A50,50,0,0,0,1150,400 M1050,500 A50,50,0,0,1,1100,550 M1100,450 A50,50,0,0,0,1150,500 M1050,600 A50,50,0,0,0,1100,550 M1100,650 A50,50,0,0,1,1150,600 M1050,700 A50,50,0,0,0,1100,650 M1100,750 A50,50,0,0,1,1150,700 M1050,800 A50,50,0,0,1,1100,850 M1100,750 A50,50,0,0,0,1150,800 M1050,900 A50,50,0,0,0,1100,850 M1100,950 A50,50,0,0,1,1150,900 M1050,1000 A50,50,0,0,1,1100,1050 M1100,950 A50,50,0,0,0,1150,1000 M1050,1100 A50,50,0,0,0,1100,1050 M1100,1150 A50,50,0,0,1,1150,1100 M1050,1200 A50,50,0,0,0,1100,1150 M1100,1250 A50,50,0,0,1,1150,1200 M1050,1300 A50,50,0,0,1,1100,1350 M1100,1250 A50,50,0,0,0,1150,1300 M1050,1400 A50,50,0,0,0,1100,1350 M1100,1450 A50,50,0,0,1,1150,1400 M1050,1500 A50,50,0,0,0,1100,1450 M1100,1550 A50,50,0,0,1,1150,1500 M1050,1600 A50,50,0,0,1,1100,1650 M1100,1550 A50,50,0,0,0,1150,1600 M1050,1700 A50,50,0,0,1,1100,1750 M1100,1650 A50,50,0,0,0,1150,1700 M1050,1800 A50,50,0,0,0,1100,1750 M1100,1850 A50,50,0,0,1,1150,1800 M1050,1900 A50,50,0,0,0,1100,1850 M1100,1950 A50,50,0,0,1,1150,1900 M1050,2000 A50,50,0,0,1,1100,2050 M1100,1950 A50,50,0,0,0,1150,2000 M1150,100 A50,50,0,0,1,1200,150 M1200,50 A50,50,0,0,0,1250,100 M1150,200 A50,50,0,0,1,1200,250 M1200,150 A50,50,0,0,0,1250,200 M1150,300 A50,50,0,0,1,1200,350 M1200,250 A50,50,0,0,0,1250,300 M1150,400 A50,50,0,0,0,1200,350 M1200,450 A50,50,0,0,1,1250,400 M1150,500 A50,50,0,0,1,1200,550 M1200,450 A50,50,0,0,0,1250,500 M1150,600 A50,50,0,0,0,1200,550 M1200,650 A50,50,0,0,1,1250,600 M1150,700 A50,50,0,0,1,1200,750 M1200,650 A50,50,0,0,0,1250,700 M1150,800 A50,50,0,0,1,1200,850 M1200,750 A50,50,0,0,0,1250,800 M1150,900 A50,50,0,0,1,1200,950 M1200,850 A50,50,0,0,0,1250,900 M1150,1000 A50,50,0,0,0,1200,950 M1200,1050 A50,50,0,0,1,1250,1000 M1150,1100 A50,50,0,0,1,1200,1150 M1200,1050 A50,50,0,0,0,1250,1100 M1150,1200 A50,50,0,0,1,1200,1250 M1200,1150 A50,50,0,0,0,1250,1200 M1150,1300 A50,50,0,0,0,1200,1250 M1200,1350 A50,50,0,0,1,1250,1300 M1150,1400 A50,50,0,0,1,1200,1450 M1200,1350 A50,50,0,0,0,1250,1400 M1150,1500 A50,50,0,0,1,1200,1550 M1200,1450 A50,50,0,0,0,1250,1500 M1150,1600 A50,50,0,0,1,1200,1650 M1200,1550 A50,50,0,0,0,1250,1600 M1150,1700 A50,50,0,0,0,1200,1650 M1200,1750 A50,50,0,0,1,1250,1700 M1150,1800 A50,50,0,0,0,1200,1750 M1200,1850 A50,50,0,0,1,1250,1800 M1150,1900 A50,50,0,0,0,1200,1850 M1200,1950 A50,50,0,0,1,1250,1900 M1150,2000 A50,50,0,0,1,1200,2050 M1200,1950 A50,50,0,0,0,1250,2000 M1250,100 A50,50,0,0,1,1300,150 M1300,50 A50,50,0,0,0,1350,100 M1250,200 A50,50,0,0,0,1300,150 M1300,250 A50,50,0,0,1,1350,200 M1250,300 A50,50,0,0,1,1300,350 M1300,250 A50,50,0,0,0,1350,300 M1250,400 A50,50,0,0,0,1300,350 M1300,450 A50,50,0,0,1,1350,400 M1250,500 A50,50,0,0,1,1300,550 M1300,450 A50,50,0,0,0,1350,500 M1250,600 A50,50,0,0,1,1300,650 M1300,550 A50,50,0,0,0,1350,600 M1250,700 A50,50,0,0,0,1300,650 M1300,750 A50,50,0,0,1,1350,700 M1250,800 A50,50,0,0,1,1300,850 M1300,750 A50,50,0,0,0,1350,800 M1250,900 A50,50,0,0,1,1300,950 M1300,850 A50,50,0,0,0,1350,900 M1250,1000 A50,50,0,0,1,1300,1050 M1300,950 A50,50,0,0,0,1350,1000 M1250,1100 A50,50,0,0,1,1300,1150 M1300,1050 A50,50,0,0,0,1350,1100 M1250,1200 A50,50,0,0,0,1300,1150 M1300,1250 A50,50,0,0,1,1350,1200 M1250,1300 A50,50,0,0,0,1300,1250 M1300,1350 A50,50,0,0,1,1350,1300 M1250,1400 A50,50,0,0,1,1300,1450 M1300,1350 A50,50,0,0,0,1350,1400 M1250,1500 A50,50,0,0,1,1300,1550 M1300,1450 A50,50,0,0,0,1350,1500 M1250,1600 A50,50,0,0,0,1300,1550 M1300,1650 A50,50,0,0,1,1350,1600 M1250,1700 A50,50,0,0,0,1300,1650 M1300,1750 A50,50,0,0,1,1350,1700 M1250,1800 A50,50,0,0,1,1300,1850 M1300,1750 A50,50,0,0,0,1350,1800 M1250,1900 A50,50,0,0,1,1300,1950 M1300,1850 A50,50,0,0,0,1350,1900 M1250,2000 A50,50,0,0,0,1300,1950 M1300,2050 A50,50,0,0,1,1350,2000 M1350,100 A50,50,0,0,0,1400,50 M1400,150 A50,50,0,0,1,1450,100 M1350,200 A50,50,0,0,1,1400,250 M1400,150 A50,50,0,0,0,1450,200 M1350,300 A50,50,0,0,1,1400,350 M1400,250 A50,50,0,0,0,1450,300 M1350,400 A50,50,0,0,0,1400,350 M1400,450 A50,50,0,0,1,1450,400 M1350,500 A50,50,0,0,1,1400,550 M1400,450 A50,50,0,0,0,1450,500 M1350,600 A50,50,0,0,0,1400,550 M1400,650 A50,50,0,0,1,1450,600 M1350,700 A50,50,0,0,1,1400,750 M1400,650 A50,50,0,0,0,1450,700 M1350,800 A50,50,0,0,1,1400,850 M1400,750 A50,50,0,0,0,1450,800 M1350,900 A50,50,0,0,1,1400,950 M1400,850 A50,50,0,0,0,1450,900 M1350,1000 A50,50,0,0,0,1400,950 M1400,1050 A50,50,0,0,1,1450,1000 M1350,1100 A50,50,0,0,1,1400,1150 M1400,1050 A50,50,0,0,0,1450,1100 M1350,1200 A50,50,0,0,1,1400,1250 M1400,1150 A50,50,0,0,0,1450,1200 M1350,1300 A50,50,0,0,1,1400,1350 M1400,1250 A50,50,0,0,0,1450,1300 M1350,1400 A50,50,0,0,1,1400,1450 M1400,1350 A50,50,0,0,0,1450,1400 M1350,1500 A50,50,0,0,1,1400,1550 M1400,1450 A50,50,0,0,0,1450,1500 M1350,1600 A50,50,0,0,0,1400,1550 M1400,1650 A50,50,0,0,1,1450,1600 M1350,1700 A50,50,0,0,0,1400,1650 M1400,1750 A50,50,0,0,1,1450,1700 M1350,1800 A50,50,0,0,1,1400,1850 M1400,1750 A50,50,0,0,0,1450,1800 M1350,1900 A50,50,0,0,1,1400,1950 M1400,1850 A50,50,0,0,0,1450,1900 M1350,2000 A50,50,0,0,1,1400,2050 M1400,1950 A50,50,0,0,0,1450,2000 M1450,100 A50,50,0,0,0,1500,50 M1500,150 A50,50,0,0,1,1550,100 M1450,200 A50,50,0,0,0,1500,150 M1500,250 A50,50,0,0,1,1550,200 M1450,300 A50,50,0,0,1,1500,350 M1500,250 A50,50,0,0,0,1550,300 M1450,400 A50,50,0,0,0,1500,350 M1500,450 A50,50,0,0,1,1550,400 M1450,500 A50,50,0,0,0,1500,450 M1500,550 A50,50,0,0,1,1550,500 M1450,600 A50,50,0,0,1,1500,650 M1500,550 A50,50,0,0,0,1550,600 M1450,700 A50,50,0,0,0,1500,650 M1500,750 A50,50,0,0,1,1550,700 M1450,800 A50,50,0,0,1,1500,850 M1500,750 A50,50,0,0,0,1550,800 M1450,900 A50,50,0,0,0,1500,850 M1500,950 A50,50,0,0,1,1550,900 M1450,1000 A50,50,0,0,0,1500,950 M1500,1050 A50,50,0,0,1,1550,1000 M1450,1100 A50,50,0,0,1,1500,1150 M1500,1050 A50,50,0,0,0,1550,1100 M1450,1200 A50,50,0,0,1,1500,1250 M1500,1150 A50,50,0,0,0,1550,1200 M1450,1300 A50,50,0,0,0,1500,1250 M1500,1350 A50,50,0,0,1,1550,1300 M1450,1400 A50,50,0,0,1,1500,1450 M1500,1350 A50,50,0,0,0,1550,1400 M1450,1500 A50,50,0,0,1,1500,1550 M1500,1450 A50,50,0,0,0,1550,1500 M1450,1600 A50,50,0,0,0,1500,1550 M1500,1650 A50,50,0,0,1,1550,1600 M1450,1700 A50,50,0,0,1,1500,1750 M1500,1650 A50,50,0,0,0,1550,1700 M1450,1800 A50,50,0,0,0,1500,1750 M1500,1850 A50,50,0,0,1,1550,1800 M1450,1900 A50,50,0,0,1,1500,1950 M1500,1850 A50,50,0,0,0,1550,1900 M1450,2000 A50,50,0,0,1,1500,2050 M1500,1950 A50,50,0,0,0,1550,2000 M1550,100 A50,50,0,0,0,1600,50 M1600,150 A50,50,0,0,1,1650,100 M1550,200 A50,50,0,0,0,1600,150 M1600,250 A50,50,0,0,1,1650,200 M1550,300 A50,50,0,0,0,1600,250 M1600,350 A50,50,0,0,1,1650,300 M1550,400 A50,50,0,0,0,1600,350 M1600,450 A50,50,0,0,1,1650,400 M1550,500 A50,50,0,0,0,1600,450 M1600,550 A50,50,0,0,1,1650,500 M1550,600 A50,50,0,0,1,1600,650 M1600,550 A50,50,0,0,0,1650,600 M1550,700 A50,50,0,0,0,1600,650 M1600,750 A50,50,0,0,1,1650,700 M1550,800 A50,50,0,0,1,1600,850 M1600,750 A50,50,0,0,0,1650,800 M1550,900 A50,50,0,0,0,1600,850 M1600,950 A50,50,0,0,1,1650,900 M1550,1000 A50,50,0,0,0,1600,950 M1600,1050 A50,50,0,0,1,1650,1000 M1550,1100 A50,50,0,0,1,1600,1150 M1600,1050 A50,50,0,0,0,1650,1100 M1550,1200 A50,50,0,0,1,1600,1250 M1600,1150 A50,50,0,0,0,1650,1200 M1550,1300 A50,50,0,0,1,1600,1350 M1600,1250 A50,50,0,0,0,1650,1300 M1550,1400 A50,50,0,0,1,1600,1450 M1600,1350 A50,50,0,0,0,1650,1400 M1550,1500 A50,50,0,0,0,1600,1450 M1600,1550 A50,50,0,0,1,1650,1500 M1550,1600 A50,50,0,0,0,1600,1550 M1600,1650 A50,50,0,0,1,1650,1600 M1550,1700 A50,50,0,0,1,1600,1750 M1600,1650 A50,50,0,0,0,1650,1700 M1550,1800 A50,50,0,0,0,1600,1750 M1600,1850 A50,50,0,0,1,1650,1800 M1550,1900 A50,50,0,0,1,1600,1950 M1600,1850 A50,50,0,0,0,1650,1900 M1550,2000 A50,50,0,0,1,1600,2050 M1600,1950 A50,50,0,0,0,1650,2000 M1650,100 A50,50,0,0,1,1700,150 M1700,50 A50,50,0,0,0,1750,100 M1650,200 A50,50,0,0,0,1700,150 M1700,250 A50,50,0,0,1,1750,200 M1650,300 A50,50,0,0,1,1700,350 M1700,250 A50,50,0,0,0,1750,300 M1650,400 A50,50,0,0,1,1700,450 M1700,350 A50,50,0,0,0,1750,400 M1650,500 A50,50,0,0,0,1700,450 M1700,550 A50,50,0,0,1,1750,500 M1650,600 A50,50,0,0,1,1700,650 M1700,550 A50,50,0,0,0,1750,600 M1650,700 A50,50,0,0,0,1700,650 M1700,750 A50,50,0,0,1,1750,700 M1650,800 A50,50,0,0,1,1700,850 M1700,750 A50,50,0,0,0,1750,800 M1650,900 A50,50,0,0,1,1700,950 M1700,850 A50,50,0,0,0,1750,900 M1650,1000 A50,50,0,0,1,1700,1050 M1700,950 A50,50,0,0,0,1750,1000 M1650,1100 A50,50,0,0,1,1700,1150 M1700,1050 A50,50,0,0,0,1750,1100 M1650,1200 A50,50,0,0,1,1700,1250 M1700,1150 A50,50,0,0,0,1750,1200 M1650,1300 A50,50,0,0,1,1700,1350 M1700,1250 A50,50,0,0,0,1750,1300 M1650,1400 A50,50,0,0,1,1700,1450 M1700,1350 A50,50,0,0,0,1750,1400 M1650,1500 A50,50,0,0,1,1700,1550 M1700,1450 A50,50,0,0,0,1750,1500 M1650,1600 A50,50,0,0,1,1700,1650 M1700,1550 A50,50,0,0,0,1750,1600 M1650,1700 A50,50,0,0,0,1700,1650 M1700,1750 A50,50,0,0,1,1750,1700 M1650,1800 A50,50,0,0,1,1700,1850 M1700,1750 A50,50,0,0,0,1750,1800 M1650,1900 A50,50,0,0,0,1700,1850 M1700,1950 A50,50,0,0,1,1750,1900 M1650,2000 A50,50,0,0,1,1700,2050 M1700,1950 A50,50,0,0,0,1750,2000 M1750,100 A50,50,0,0,1,1800,150 M1800,50 A50,50,0,0,0,1850,100 M1750,200 A50,50,0,0,0,1800,150 M1800,250 A50,50,0,0,1,1850,200 M1750,300 A50,50,0,0,0,1800,250 M1800,350 A50,50,0,0,1,1850,300 M1750,400 A50,50,0,0,0,1800,350 M1800,450 A50,50,0,0,1,1850,400 M1750,500 A50,50,0,0,1,1800,550 M1800,450 A50,50,0,0,0,1850,500 M1750,600 A50,50,0,0,0,1800,550 M1800,650 A50,50,0,0,1,1850,600 M1750,700 A50,50,0,0,1,1800,750 M1800,650 A50,50,0,0,0,1850,700 M1750,800 A50,50,0,0,0,1800,750 M1800,850 A50,50,0,0,1,1850,800 M1750,900 A50,50,0,0,1,1800,950 M1800,850 A50,50,0,0,0,1850,900 M1750,1000 A50,50,0,0,1,1800,1050 M1800,950 A50,50,0,0,0,1850,1000 M1750,1100 A50,50,0,0,0,1800,1050 M1800,1150 A50,50,0,0,1,1850,1100 M1750,1200 A50,50,0,0,1,1800,1250 M1800,1150 A50,50,0,0,0,1850,1200 M1750,1300 A50,50,0,0,1,1800,1350 M1800,1250 A50,50,0,0,0,1850,1300 M1750,1400 A50,50,0,0,0,1800,1350 M1800,1450 A50,50,0,0,1,1850,1400 M1750,1500 A50,50,0,0,1,1800,1550 M1800,1450 A50,50,0,0,0,1850,1500 M1750,1600 A50,50,0,0,0,1800,1550 M1800,1650 A50,50,0,0,1,1850,1600 M1750,1700 A50,50,0,0,0,1800,1650 M1800,1750 A50,50,0,0,1,1850,1700 M1750,1800 A50,50,0,0,1,1800,1850 M1800,1750 A50,50,0,0,0,1850,1800 M1750,1900 A50,50,0,0,0,1800,1850 M1800,1950 A50,50,0,0,1,1850,1900 M1750,2000 A50,50,0,0,0,1800,1950 M1800,2050 A50,50,0,0,1,1850,2000 M1850,100 A50,50,0,0,1,1900,150 M1900,50 A50,50,0,0,0,1950,100 M1850,200 A50,50,0,0,0,1900,150 M1900,250 A50,50,0,0,1,1950,200 M1850,300 A50,50,0,0,1,1900,350 M1900,250 A50,50,0,0,0,1950,300 M1850,400 A50,50,0,0,0,1900,350 M1900,450 A50,50,0,0,1,1950,400 M1850,500 A50,50,0,0,1,1900,550 M1900,450 A50,50,0,0,0,1950,500 M1850,600 A50,50,0,0,1,1900,650 M1900,550 A50,50,0,0,0,1950,600 M1850,700 A50,50,0,0,0,1900,650 M1900,750 A50,50,0,0,1,1950,700 M1850,800 A50,50,0,0,1,1900,850 M1900,750 A50,50,0,0,0,1950,800 M1850,900 A50,50,0,0,1,1900,950 M1900,850 A50,50,0,0,0,1950,900 M1850,1000 A50,50,0,0,0,1900,950 M1900,1050 A50,50,0,0,1,1950,1000 M1850,1100 A50,50,0,0,1,1900,1150 M1900,1050 A50,50,0,0,0,1950,1100 M1850,1200 A50,50,0,0,0,1900,1150 M1900,1250 A50,50,0,0,1,1950,1200 M1850,1300 A50,50,0,0,0,1900,1250 M1900,1350 A50,50,0,0,1,1950,1300 M1850,1400 A50,50,0,0,0,1900,1350 M1900,1450 A50,50,0,0,1,1950,1400 M1850,1500 A50,50,0,0,0,1900,1450 M1900,1550 A50,50,0,0,1,1950,1500 M1850,1600 A50,50,0,0,0,1900,1550 M1900,1650 A50,50,0,0,1,1950,1600 M1850,1700 A50,50,0,0,0,1900,1650 M1900,1750 A50,50,0,0,1,1950,1700 M1850,1800 A50,50,0,0,1,1900,1850 M1900,1750 A50,50,0,0,0,1950,1800 M1850,1900 A50,50,0,0,0,1900,1850 M1900,1950 A50,50,0,0,1,1950,1900 M1850,2000 A50,50,0,0,0,1900,1950 M1900,2050 A50,50,0,0,1,1950,2000 M1950,100 A50,50,0,0,1,2000,150 M2000,50 A50,50,0,0,0,2050,100 M1950,200 A50,50,0,0,0,2000,150 M2000,250 A50,50,0,0,1,2050,200 M1950,300 A50,50,0,0,0,2000,250 M2000,350 A50,50,0,0,1,2050,300 M1950,400 A50,50,0,0,0,2000,350 M2000,450 A50,50,0,0,1,2050,400 M1950,500 A50,50,0,0,1,2000,550 M2000,450 A50,50,0,0,0,2050,500 M1950,600 A50,50,0,0,0,2000,550 M2000,650 A50,50,0,0,1,2050,600 M1950,700 A50,50,0,0,0,2000,650 M2000,750 A50,50,0,0,1,2050,700 M1950,800 A50,50,0,0,0,2000,750 M2000,850 A50,50,0,0,1,2050,800 M1950,900 A50,50,0,0,0,2000,850 M2000,950 A50,50,0,0,1,2050,900 M1950,1000 A50,50,0,0,1,2000,1050 M2000,950 A50,50,0,0,0,2050,1000 M1950,1100 A50,50,0,0,0,2000,1050 M2000,1150 A50,50,0,0,1,2050,1100 M1950,1200 A50,50,0,0,1,2000,1250 M2000,1150 A50,50,0,0,0,2050,1200 M1950,1300 A50,50,0,0,0,2000,1250 M2000,1350 A50,50,0,0,1,2050,1300 M1950,1400 A50,50,0,0,1,2000,1450 M2000,1350 A50,50,0,0,0,2050,1400 M1950,1500 A50,50,0,0,0,2000,1450 M2000,1550 A50,50,0,0,1,2050,1500 M1950,1600 A50,50,0,0,0,2000,1550 M2000,1650 A50,50,0,0,1,2050,1600 M1950,1700 A50,50,0,0,0,2000,1650 M2000,1750 A50,50,0,0,1,2050,1700 M1950,1800 A50,50,0,0,1,2000,1850 M2000,1750 A50,50,0,0,0,2050,1800 M1950,1900 A50,50,0,0,0,2000,1850 M2000,1950 A50,50,0,0,1,2050,1900 M1950,2000 A50,50,0,0,1,2000,2050 M2000,1950 A50,50,0,0,0,2050,2000" stroke="black" fill="none" stroke-width="5" id="d0" />
<use xlink:href="#d0" />
<use xlink:href="#d0" />
<use xlink:href="#d0" />
<use xlink:href="#d0" />
<use xlink:href="#d0" />
<use xlink:href="#d0" />
<use xlink:href="#d0" />
<use xlink:href="#d0" />
<use xlink:href="#d0" />
<use xlink:href="#d0" />
<use xlink:href="#d0" />
<use xlink:href="#d0" />
<use xlink:href="#d0" />
<use xlink:href="#d0" />
<use xlink:href="#d0" />
<use xlink:href="#d0" />
<use xlink:href="#d0" />
<use xlink:href="#d0" />
<use xlink:href="#d0" />
<use xlink:href="#d0" />
<use xlink:href="#d0" />
<use xlink:href="#d0" />
<use xlink:href="#d0" />
<use xlink:href="#d0" />
<use xlink:href="#d0" />
<use xlink:href="#d0" />
<use xlink:href="#d0" />
<use xlink:href="#d0" />
<use xlink:href="#d0" />
<use xlink:href="#d0" />
<use xlink:href="#d0" />
<use xlink:href="#d0" />
<use xlink:href="#d0" />
<use xlink:href="#d0" />
<use xlink:href="#d0" />
<use xlink:href="#d0" />
<use xlink:href="#d0" />
<use xlink:href="#d0" />
<use xlink:href="#d0" />
<use xlink:href="#d0" />
<use xlink:href="#d0" />
<use xlink:href="#d0" />
<use xlink:href="#d0" />
<use xlink:href="#d0" />
<use xlink:href="#d0" />
<use xlink:href="#d0" />
<use xlink:href="#d0" />
<use xlink:href="#d0" />
<use xlink:href="#d0" />
<use xlink:href="#d0" />
<use xlink:href="#d0" />
<use xlink:href="#d0" />
<use xlink:href="#d0" />
<use xlink:href="#d0" />
<use xlink:href="#d0" />
<use xlink:href="#d0" />
<use xlink:href="#d0" />
<use xlink:href="#d0" />
<use xlink:href="#d0" />
<use xlink:href="#d0" />
<use xlink:href="#d0" />
<use xlink:href="#d0" />
<use xlink:href="#d0" />
<use xlink:href="#d0" />
<use xlink:href="#d0" />
<use xlink:href="#d0" />
<use xlink:href="#d0" />
<use xlink:href="#d0" />
<use xlink:href="#d0" />
<use xlink:href="#d0" />
<use xlink:href="#d0" />
<use xlink:href="#d0" />
<use xlink:href="#d0" />
<use xlink:href="#d0" />
<use xlink:href="#d0" />
<use xlink:href="#d0" />
<use xlink:href="#d0" />
<use xlink:href="#d0" />
<use xlink:href="#d0" />
<use xlink:href="#d0" />
<use xlink:href="#d0" />
<use xlink:href="#d0" />
<use xlink:href="#d0" />
<use xlink:href="#d0" />
<use xlink:href="#d0" />
<use xlink:href="#d0" />
<use xlink:href="#d0" />
<use xlink:href="#d0" />
<use xlink:href="#d0" />
<use xlink:href="#d0" />
<use xlink:href="#d0" />
<use xlink:href="#d0" />
<use xlink:href="#d0" />
<use xlink:href="#d0" />
<use xlink:href="#d0" />
<use xlink:href="#d0" />
<use xlink:href="#d0" />
<use xlink:href="#d0" />
<use xlink:href="#d0" />
<use xlink:href="#d0" />
<use xlink:href="#d0" />
<use xlink:href="#d0" />
<use xlink:href="#d0" />
<use xlink:href="#d0" />
<use xlink:href="#d0" />
<use xlink:href="#d0" />
<use xlink:href="#d0" />
<use xlink:href="#d0" />
<use xlink:href="#d0" />
<use xlink:href="#d0" />
<use xlink:href="#d0" />
<use xlink:href="#d0" />
<use xlink:href="#d0" />
<use xlink:href="#d0" />
<use xlink:href="#d0" />
<use xlink:href="#d0" />
<use xlink:href="#d0" />
<use xlink:href="#d0" />
<use xlink:href="#d0" />
<use xlink:href="#d0" />
<use xlink:href="#d0" />
<use xlink:href="#d0" />
<use xlink:href="#d0" />
<use xlink:href="#d0" />
<use xlink:href="#d0" />
<use xlink:href="#d0" />
<use xlink:href="#d0" />
<use xlink:href="#d0" />
<use xlink:href="#d0" />
<use xlink:href="#d0" />
<use xlink:href="#d0" />
<use xlink:href="#d0" />
<use xlink:href="#d0" />
<use xlink:href="#d0" />
<use xlink:href="#d0" />
<use xlink:href="#d0" />
<use xlink:href="#d0" />
<use xlink:href="#d0" />
<use xlink:href="#d0" />
<use xlink:href="#d0" />
<use xlink:href="#d0" />
<use xlink:href="#d0" />
<use xlink:href="#d0" />
<use xlink:href="#d0" />
<use xlink:href="#d0" />
<use xlink:href="#d0" />
<use xlink:href="#d0" />
<use xlink:href="#d0" />
<use xlink:href="#d0" />
<use xlink:href="#d0" />
<use xlink:href="#d0" />
<use xlink:href="#d0" />
<use xlink:href="#d0" />
<use xlink:href="#d0" />
<use xlink:href="#d0" />
<use xlink:href="#d0" />
<use xlink:href="#d0" />
<use xlink:href="#d0" />
<use xlink:href="#d0" />
<use xlink:href="#d0" />
<use xlink:href="#d0" />
<use xlink:href="#d0" />
<use xlink:href="#d0" />
<use xlink:href="#d0" />
<use xlink:href="#d0" />
<use xlink:href="#d0" />
<use xlink:href="#d0" />
<use xlink:href="#d0" />
<use xlink:href="#d0" />
<use xlink:href="#d0" />
<use xlink:href="#d0" />
<use xlink:href="#d0" />
<use xlink:href="#d0" />
<use xlink:href="#d0" />
<use xlink:href="#d0" />
<use xlink:href="#d0" />
<use xlink:href="#d0" />
<use xlink:href="#d0" />
<use xlink:href="#d0" />
<use xlink:href="#d0" />
<use xlink:href="#d0" />
<use xlink:href="#d0" />
<use xlink:href="#d0" />
<use xlink:href="#d0" />
<use xlink:href="#d0" />
<use xlink:href="#d0" />
<use xlink:href="#d0" />
<use xlink:href="#d0" />
<use xlink:href="#d0" />
<use xlink:href="#d0" />
<use xlink:href="#d0" />
<use xlink:href="#d0" />
<use xlink:href="#d0" />
<use xlink:href="#d0" />
<use xlink:href="#d0" />
<use xlink:href="#d0" />
<use xlink:href="#d0" />
<use xlink:href="#d0" />
<use xlink:href="#d0" />
<use xlink:href="#d0" />
<use xlink:href="#d0" />
<use xlink:href="#d0" />
<use xlink:href="#d0" />
<use xlink:href="#d0" />
<use xlink:href="#d0" />
<use xlink:href="#d0" />
<use xlink:href="#d0" />
<use xlink:href="#d0" />
<use xlink:href="#d0" />
<use xlink:href="#d0" />
<use xlink:href="#d0" />
<use xlink:href="#d0" />
<use xlink:href="#d0" />
<use xlink:href="#d0" />
<use xlink:href="#d0" />
<use xlink:href="#d0" />
<use xlink:href="#d0" />
<use xlink:href="#d0" />
<use xlink:href="#d0" />
<use xlink:href="#d0" />
<use xlink:href="#d0" />
<use xlink:href="#d0" />
<use xlink:href="#d0" />
<use xlink:href="#d0" />
<use xlink:href="#d0" />
<use xlink:href="#d0" />
<use xlink:href="#d0" />
<use xlink:href="#d0" />
<use xlink:href="#d0" />
<use xlink:href="#d0" />
<use xlink:href="#d0" />
<use xlink:href="#d0" />
<use xlink:href="#d0" />
<use xlink:href="#d0" />
<use xlink:href="#d0" />
<use xlink:href="#d0" />
<use xlink:href="#d0" />
<use xlink:href="#d0" />
<use xlink:href="#d0" />
<use xlink:href="#d0" />
<use xlink:href="#d0" />
<use xlink:href="#d0" />
<use xlink:href="#d0" />
<use xlink:href="#d0" />
<use xlink:href="#d0" />
<use xlink:href="#d0" />
<use xlink:href="#d0" />
<use xlink:href="#d0" />
<use xlink:href="#d0" />
<use xlink:href="#d0" />
<use xlink:href="#d0" />
<use xlink:href="#d0" />
<use xlink:href="#d0" />
<use xlink:href="#d0" />
<use xlink:href="#d0" />
<use xlink:href="#d0" />
<use xlink:href="#d0" />
<use xlink:href="#d0" />
<use xlink:href="#d0" />
<use xlink:href="#d0" />
<use xlink:href="#d0" />
<use xlink:href="#d0" />
<use xlink:href="#d0" />
<use xlink:href="#d0" />
<use xlink:href="#d0" />
<use xlink:href="#d0" />
<use xlink:href="#d0" />
<use xlink:href="#d0" />
<use xlink:href="#d0" />
<use xlink:href="#d0" />
<use xlink:href="#d0" />
<use xlink:href="#d0" />
<use xlink:href="#d0" />
<use xlink:href="#d0" />
<use xlink:href="#d0" />
<use xlink:href="#d0" />
<use xlink:href="#d0" />
<use xlink:href="#d0" />
<use xlink:href="#d0" />
<use xlink:href="#d0" />
<use xlink:href="#d0" />
<use xlink:href="#d0" />
<use xlink:href="#d0" />
<use xlink:href="#d0" />
<use xlink:href="#d0" />
<use xlink:href="#d0" />
<use xlink:href="#d0" />
<use xlink:href="#d0" />
<use xlink:href="#d0" />
<use xlink:href="#d0" />
<use xlink:href="#d0" />
<use xlink:href="#d0" />
<use xlink:href="#d0" />
<use xlink:href="#d0" />
<use xlink:href="#d0" />
<use xlink:href="#d0" />
<use xlink:href="#d0" />
<use xlink:href="#d0" />
<use xlink:href="#d0" />
<use xlink:href="#d0" />
<use xlink:href="#d0" />
<use xlink:href="#d0" />
<use xlink:href="#d0" />
<use xlink:href="#d0" />
<use xlink:href="#d0" />
<use xlink:href="#d0" />
<use xlink:href="#d0" />
<use xlink:href="#d0" />
<use xlink:href="#d0" />
<use xlink:href="#d0" />
<use xlink:href="#d0" />
<use xlink:href="#d0" />
<use xlink:href="#d0" />
<use xlink:href="#d0" />
<use xlink:href="#d0" />
<use xlink:href="#d0" />
<use xlink:href="#d0" />
<use xlink:href="#d0" />
<use xlink:href="#d0" />
<use xlink:href="#d0" />
<use xlink:href="#d0" />
<use xlink:href="#d0" />
<use xlink:href="#d0" />
<use xlink:href="#d0" />
<use xlink:href="#d0" />
<use xlink:href="#d0" />
<use xlink:href="#d0" />
<use xlink:href="#d0" />
<use xlink:href="#d0" />
<use xlink:href="#d0" />
<use xlink:href="#d0" />
<use xlink:href="#d0" />
<use xlink:href="#d0" />
<use xlink:href="#d0" />
<use xlink:href="#d0" />
<use xlink:href="#d0" />
<use xlink:href="#d0" />
<use xlink:href="#d0" />
<use xlink:href="#d0" />
<use xlink:href="#d0" />
<use xlink:href="#d0" />
<use xlink:href="#d0" />
<use xlink:href="#d0" />
<use xlink:href="#d0" />
<use xlink:href="#d0" />
<use xlink:href="#d0" />
<use xlink:href="#d0" />
<use xlink:href="#d0" />
<use xlink:href="#d0" />
<use xlink:href="#d0" />
<use xlink:href="#d0" />
<use xlink:href="#d0" />
<use xlink:href="#d0" />
<use xlink:href="#d0" />
<use xlink:href="#d0" />
<use xlink:href="#d0" />
<use xlink:href="#d0" />
<use xlink:href="#d0" />
<use xlink:href="#d0" />
<use xlink:href="#d0" />
<use xlink:href="#d0" />
<use xlink:href="#d0" />
<use xlink:href="#d0" />
<use xlink:href="#d0" />
<use xlink:href="#d0" />
<use xlink:href="#d0" />
<use xlink:href="#d0" />
<use xlink:href="#d0" />
<use xlink:href="#d0" />
<use xlink:href="#d0" />
<use xlink:href="#d0" />
<use xlink:href="#d0" />
<use xlink:href="#d0" />
<use xlink:href="#d0" />
<use xlink:href="#d0" />
<use xlink:href="#d0" />
<use xlink:href="#d0" />
<use xlink:href="#d0" />
<use xlink:href="#d0" />
<use xlink:href="#d0" />
<use xlink:href="#d0" />
<use xlink:href="#d0" />
<use xlink:href="#d0" />
<use xlink:href="#d0" />
<use xlink:href="#d0" />
<use xlink:href="#d0" />
<use xlink:href="#d0" />
<use xlink:href="#d0" />
<use xlink:href="#d0" />
<use xlink:href="#d0" />
<use xlink:href="#d0" />
<use xlink:href="#d0" />
<use xlink:href="#d0" />
<use xlink:href="#d0" />
<use xlink:href="#d0" />
<use xlink:href="#d0" />
<use xlink:href="#d0" />
<use xlink:href="#d0" />
<use xlink:href="#d0" />
<use xlink:href="#d0" />
<use xlink:href="#d0" />
<use xlink:href="#d0" />
<use xlink:href="#d0" />
<use xlink:href="#d0" />
<use xlink:href="#d0" />
<use xlink:href="#d0" />
<use xlink:href="#d0" />
<use xlink:href="#d0" />
<use xlink:href="#d0" />
<use xlink:href="#d0" />
<use xlink:href="#d0" />
<use xlink:href="#d0" />
<use xlink:href="#d0" />
<use xlink:href="#d0" />
<use xlink:href="#d0" />
<use xlink:href="#d0" />
<use xlink:href="#d0" />
<use xlink:href="#d0" />
<use xlink:href="#d0" />
<use xlink:href="#d0" />
<use xlink:href="#d0" />
<use xlink:href="#d0" />
<use xlink:href="#d0" />
<use xlink:href="#d0" />
<use xlink:href="#d0" />
<use xlink:href="#d0" />
<use xlink:href="#d0" />
<use xlink:href="#d0" />
<use xlink:href="#d0" />
<use xlink:href="#d0" />
<use xlink:href="#d0" />
<use xlink:href="#d0" />
<use xlink:href="#d0" />
<use xlink:href="#d0" />
<use xlink:href="#d0" />
<use xlink:href="#d0" />
<use xlink:href="#d0" />
<use xlink:href="#d0" />
<use xlink:href="#d0" />
<use xlink:href="#d0" />
<use xlink:href="#d0" />
<use xlink:href="#d0" />
<use xlink:href="#d0" />
<use xlink:href="#d0" />
<use xlink:href="#d0" />
<use xlink:href="#d0" />
<use xlink:href="#d0" />
<use xlink:href="#d0" />
<use xlink:href="#d0" />
<use xlink:href="#d0" />
<use xlink:href="#d0" />
<use xlink:href="#d0" />
<use xlink:href="#d0" />
<use xlink:href="#d0" />
<use xlink:href="#d0" />
<use xlink:href="#d0" />
<use xlink:href="#d0" />
<use xlink:href="#d0" />
<use xlink:href="#d0" />
<use xlink:href="#d0" />
<use xlink:href="#d0" />
<use xlink:href="#d0" />
<use xlink:href="#d0" />
<use xlink:href="#d0" />
<use xlink:href="#d0" />
<use xlink:href="#d0" />
<use xlink:href="#d0" />
<use xlink:href="#d0" />
<use xlink:href="#d0" />
<use xlink:href="#d0" />
<use xlink:href="#d0" />
<use xlink:href="#d0" />
<use xlink:href="#d0" />
<use xlink:href="#d0" />
<use xlink:href="#d0" />
<use xlink:href="#d0" />
<use xlink:href="#d0" />
<use xlink:href="#d0" />
<use xlink:href="#d0" />
<use xlink:href="#d0" />
<use xlink:href="#d0" />
<use xlink:href="#d0" />
<use xlink:href="#d0" />
<use xlink:href="#d0" />
<use xlink:href="#d0" />
<use xlink:href="#d0" />
<use xlink:href="#d0" />
<use xlink:href="#d0" />
<use xlink:href="#d0" />
<use xlink:href="#d0" />
<use xlink:href="#d0" />
<use xlink:href="#d0" />
<use xlink:href="#d0" />
<use xlink:href="#d0" />
<use xlink:href="#d0" />
<use xlink:href="#d0" />
<use xlink:href="#d0" />
<use xlink:href="#d0" />
<use xlink:href="#d0" />
<use xlink:href="#d0" />
<use xlink:href="#d0" />
<use xlink:href="#d0" />
<use xlink:href="#d0" />
<use xlink:href="#d0" />
<use xlink:href="#d0" />
<use xlink:href="#d0" />
<use xlink:href="#d0" />
<use xlink:href="#d0" />
<use xlink:href="#d0" />
<use xlink:href="#d0" />
<use xlink:href="#d0" />
<use xlink:href="#d0" />
<use xlink:href="#d0" />
<use xlink:href="#d0" />
<use xlink:href="#d0" />
<use xlink:href="#d0" />
<use xlink:href="#d0" />
<use xlink:href="#d0" />
<use xlink:href="#d0" />
<use xlink:href="#d0" />
<use xlink:href="#d0" />
<use xlink:href="#d0" />
<use xlink:href="#d0" />
<use xlink:href="#d0" />
<use xlink:href="#d0" />
<use xlink:href="#d0" />
<use xlink:href="#d0" />
<use xlink:href="#d0" />
<use xlink:href="#d0" />
<use xlink:href="#d0" />
<use xlink:href="#d0" />
<use xlink:href="#d0" />
<use xlink:href="#d0" />
<use xlink:href="#d0" />
<use xlink:href="#d0" />
<use xlink:href="#d0" />
<use xlink:href="#d0" />
<use xlink:href="#d0" />
<use xlink:href="#d0" />
<use xlink:href="#d0" />
<use xlink:href="#d0" />
<use xlink:href="#d0" />
<use xlink:href="#d0" />
<use xlink:href="#d0" />
<use xlink:href="#d0" />
<use xlink:href="#d0" />
<use xlink:href="#d0" />
<use xlink:href="#d0" />
<use xlink:href="#d0" />
<use xlink:href="#d0" />
<use xlink:href="#d0" />
<use xlink:href="#d0" />
<use xlink:href="#d0" />
<use xlink:href="#d0" />
<use xlink:href="#d0" />
<use xlink:href="#d0" />
<use xlink:href="#d0" />
<use xlink:href="#d0" />
<use xlink:href="#d0" />
<use xlink:href="#d0" />
<use xlink:href="#d0" />
<use xlink:href="#d0" />
<use xlink:href="#d0" />
<use xlink:href="#d0" />
<use xlink:href="#d0" />
<use xlink:href="#d0" />
<use xlink:href="#d0" />
<use xlink:href="#d0" />
<use xlink:href="#d0" />
<use xlink:href="#d0" />
<use xlink:href="#d0" />
<use xlink:href="#d0" />
<use xlink:href="#d0" />
<use xlink:href="#d0" />
<use xlink:href="#d0" />
<use xlink:href="#d0" />
<use xlink:href="#d0" />
<use xlink:href="#d0" />
<use xlink:href="#d0" />
<use xlink:href="#d0" />
<use xlink:href="#d0" />
<use xlink:href="#d0" />
<use xlink:href="#d0" />
<use xlink:href="#d0" />
<use xlink:href="#d0" />
<use xlink:href="#d0" />
<use xlink:href="#d0" />
<use xlink:href="#d0" />
<use xlink:href="#d0" />
<use xlink:href="#d0" />
<use xlink:href="#d0" />
<use xlink:href="#d0" />
<use xlink:href="#d0" />
<use xlink:href="#d0" />
<use xlink:href="#d0" />
<use xlink:href="#d0" />
<use xlink:href="#d0" />
<use xlink:href="#d0" />
<use xlink:href="#d0" />
<use xlink:href="#d0" />
<use xlink:href="#d0" />
<use xlink:href="#d0" />
<use xlink:href="#d0" />
<use xlink:href="#d0" />
<use xlink:href="#d0" />
<use xlink:href="#d0" />
<use xlink:href="#d0" />
<use xlink:href="#d0" />
<use xlink:href="#d0" />
<use xlink:href="#d0" />
<use xlink:href="#d0" />
<use xlink:href="#d0" />
<use xlink:href="#d0" />
<use xlink:href="#d0" />
<use xlink:href="#d0" />
<use xlink:href="#d0" />
<use xlink:href="#d0" />
<use xlink:href="#d0" />
<use xlink:href="#d0" />
<use xlink:href="#d0" />
<use xlink:href="#d0" />
<use xlink:href="#d0" />
<use xlink:href="#d0" />
<use xlink:href="#d0" />
<use xlink:href="#d0" />
<use xlink:href="#d0" />
<use xlink:href="#d0" />
<use xlink:href="#d0" />
<use xlink:href="#d0" />
<use xlink:href="#d0" />
<use xlink:href="#d0" />
<use xlink:href="#d0" />
<use xlink:href="#d0" />
<use xlink:href="#d0" />
<use xlink:href="#d0" />
<use xlink:href="#d0" />
<use xlink:href="#d0" />
<use xlink:href="#d0" />
<use xlink:href="#d0" />
<use xlink:href="#d0" />
<use xlink:href="#d0" />
<use xlink:href="#d0" />
<use xlink:href="#d0" />
<use xlink:href="#d0" />
<use xlink:href="#d0" />
<use xlink:href="#d0" />
<use xlink:href="#d0" />
<use xlink:href="#d0" />
<use xlink:href="#d0" />
<use xlink:href="#d0" />
<use xlink:href="#d0" />
<use xlink:href="#d0" />
<use xlink:href="#d0" />
<use xlink:href="#d0" />
<use xlink:href="#d0" />
<use xlink:href="#d0" />
<use xlink:href="#d0" />
<use xlink:href="#d0" />
<use xlink:href="#d0" />
<use xlink:href="#d0" />
<use xlink:href="#d0" />
<use xlink:href="#d0" />
<use xlink:href="#d0" />
<use xlink:href="#d0" />
<use xlink:href="#d0" />
<use xlink:href="#d0" />
<use xlink:href="#d0" />
<use xlink:href="#d0" />
<use xlink:href="#d0" />
<use xlink:href="#d0" />
<use xlink:href="#d0" />
<use xlink:href="#d0" />
<use xlink:href="#d0" />
<use xlink:href="#d0" />
<use xlink:href="#d0" />
<use xlink:href="#d0" />
<use xlink:href="#d0" />
<use xlink:href="#d0" />
<use xlink:href="#d0" />
<use xlink:href="#d0" />
<use xlink:href="#d0" />
<use xlink:href="#d0" />
<use xlink:href="#d0" />
<use xlink:href="#d0" />
<use xlink:href="#d0" />
<use xlink:href="#d0" />
<use xlink:href="#d0" />
<use xlink:href="#d0" />
<use xlink:href="#d0" />
<use xlink:href="#d0" />
<use xlink:href="#d0" />
<use xlink:href="#d0" />
<use xlink:href="#d0" />
<use xlink:href="#d0" />
<use xlink:href="#d0" />
<use xlink:href="#d0" />
<use xlink:href="#d0" />
<use xlink:href="#d0" />
<use xlink:href="#d0" />
<use xlink:href="#d0" />
<use xlink:href="#d0" />
<use xlink:href="#d0" />
<use xlink:href="#d0" />
<use xlink:href="#d0" />
<use xlink:href="#d0" />
<use xlink:href="#d0" />
<use xlink:href="#d0" />
<use xlink:href="#d0" />
<use xlink:href="#d0" />
<use xlink:href="#d0" />
<use xlink:href="#d0" />
<use xlink:href="#d0" />
<use xlink:href="#d0" />
<use xlink:href="#d0" />
<use xlink:href="#d0" />
<use xlink:href="#d0" />
<use xlink:href="#d0" />
<use xlink:href="#d0" />
<use xlink:href="#d0" />
<use xlink:href="#d0" />
<use xlink:href="#d0" />
<use xlink:href="#d0" />
<use xlink:href="#d0" />
<use xlink:href="#d0" />
<use xlink:href="#d0" />
<use xlink:href="#d0" />
<use xlink:href="#d0" />
<use xlink:href="#d0" />
<use xlink:href="#d0" />
<use xlink:href="#d0" />
<use xlink:href="#d0" />
<use xlink:href="#d0" />
<use xlink:href="#d0" />
<use xlink:href="#d0" />
<use xlink:href="#d0" />
<use xlink:href="#d0" />
<use xlink:href="#d0" />
<use xlink:href="#d0" />
<use xlink:href="#d0" />
<use xlink:href="#d0" />
<use xlink:href="#d0" />
<use xlink:href="#d0" />
<use xlink:href="#d0" />
<use xlink:href="#d0" />
<use xlink:href="#d0" />
<use xlink:href="#d0" />
<use xlink:href="#d0" />
<use xlink:href="#d0" />
<use xlink:href="#d0" />
<use xlink:href="#d0" />
<use xlink:href="#d0" />
<use xlink:href="#d0" />
<use xlink:href="#d0" />
<use xlink:href="#d0" />
<use xlink:href="#d0" />
<use xlink:href="#d0" />
<use xlink:href="#d0" />
<use xlink:href="#d0" />
<use xlink:href="#d0" />
<use xlink:href="#d0" />
<use xlink:href="#d0" />
<use xlink:href="#d0" />
<use xlink:href="#d0" />
<use xlink:href="#d0" />
<use xlink:href="#d0" />
<use xlink:href="#d0" />
<use xlink:href="#d0" />
<use xlink:href="#d0" />
<use xlink:href="#d0" />
<use xlink:href="#d0" />
<use xlink:href="#d0" />
<use xlink:href="#d0" />
<use xlink:href="#d0" />
<use xlink:href="#d0" />
<use xlink:href="#d0" />
<use xlink:href="#d0" />
<use xlink:href="#d0" />
<use xlink:href="#d0" />
<use xlink:href="#d0" />
<use xlink:href="#d0" />
<use xlink:href="#d0" />
<use xlink:href="#d0" />
<use xlink:href="#d0" />
<use xlink:href="#d0" />
<use xlink:href="#d0" />
<use xlink:href="#d0" />
<use xlink:href="#d0" />
<use xlink:href="#d0" />
<use xlink:href="#d0" />
<use xlink:href="#d0" />
<use xlink:href="#d0" />
<use xlink:href="#d0" />
<use xlink:href="#d0" />
<use xlink:href="#d0" />
<use xlink:href="#d0" />
<use xlink:href="#d0" />
<use xlink:href="#d0" />
<use xlink:href="#d0" />
<use xlink:href="#d0" />
<rect x="50" y="50" width="2000" height="2000" stroke="black" stroke-width="5" fill="none" />
</svg>